<svg xmlns="http://www.w3.org/2000/svg"  viewBox="0 0 64 64" width="44px" height="44px"><linearGradient id="6gxnPGf6WjBWyAL1~vlTXa" x1="32" x2="32" y1="4" y2="60" gradientUnits="userSpaceOnUse"><stop offset="0" stop-color="#1a6dff"/><stop offset="1" stop-color="#c822ff"/></linearGradient><path fill="url(#6gxnPGf6WjBWyAL1~vlTXa)" d="M24.972,60H15c-0.553,0-1-0.448-1-1v-9.806c0-0.164,0.04-0.325,0.117-0.47l9.801-18.402	L23.706,30H15c-0.553,0-1-0.448-1-1V16c0-0.552,0.447-1,1-1h16.478l1.042-0.822l4.604-8.669c0.048-0.09,0.109-0.172,0.182-0.244	l0.995-0.978C38.488,4.103,38.739,4,39.002,4h9.971C49.525,4,50,4.448,50,5v9.833c0,0.164-0.04,0.326-0.117,0.471l-9.801,18.375	L40.294,34H49c0.553,0,1,0.448,1,1v13c0,0.552-0.447,1-1,1H32.528l-1.045,0.844l-4.607,8.648c-0.05,0.094-0.114,0.179-0.191,0.252	l-1.021,0.978C25.478,59.9,25.229,60,24.972,60z M16,58h8.57l0.615-0.589l4.628-8.687c0.063-0.119,0.15-0.223,0.255-0.308	l1.479-1.194C31.725,47.078,31.946,47,32.175,47H48V36h-8.246c-0.337,0-0.651-0.169-0.836-0.451l-0.833-1.269	c-0.201-0.306-0.219-0.697-0.047-1.02L48,14.583V6h-8.589l-0.594,0.583l-4.631,8.719c-0.064,0.122-0.154,0.229-0.263,0.315	l-1.479,1.167C32.269,16.924,32.05,17,31.825,17H16v11h8.246c0.337,0,0.651,0.169,0.836,0.451l0.833,1.269	c0.2,0.306,0.219,0.696,0.047,1.019L16,49.443V58z"/><linearGradient id="6gxnPGf6WjBWyAL1~vlTXb" x1="32" x2="32" y1="8" y2="56" gradientUnits="userSpaceOnUse"><stop offset="0" stop-color="#6dc7ff"/><stop offset="1" stop-color="#e6abff"/></linearGradient><path fill="url(#6gxnPGf6WjBWyAL1~vlTXb)" d="M46,8v6.083L36.274,32.32l-0.838,1.571l0.977,1.488l0.833,1.269L38.135,38h1.619H46v7H32.175	h-1.06l-0.825,0.666l-1.478,1.194l-0.475,0.384l-0.287,0.539L23.671,56H18v-6.057l9.727-18.264l0.836-1.57l-0.977-1.487	l-0.833-1.269L25.865,26h-1.619H18v-7h13.825h1.042l0.818-0.646l1.478-1.167l0.495-0.391l0.296-0.556L40.33,8H46"/></svg>