<?xml version="1.0" encoding="UTF-8"?>
<!DOCTYPE svg PUBLIC "-//W3C//DTD SVG 1.1//EN" "http://www.w3.org/Graphics/SVG/1.1/DTD/svg11.dtd">
<svg xmlns="http://www.w3.org/2000/svg" version="1.1" width="50px" height="50px" style="shape-rendering:geometricPrecision; text-rendering:geometricPrecision; image-rendering:optimizeQuality; fill-rule:evenodd; clip-rule:evenodd" xmlns:xlink="http://www.w3.org/1999/xlink">
<g><path style="opacity:0.765" fill="#246cfd" d="M 41.5,11.5 C 32.9185,10.9997 24.2519,10.9997 15.5,11.5C 12.4299,11.3677 9.42994,11.701 6.5,12.5C 9.10454,9.11559 12.6045,7.44893 17,7.5C 19.557,7.95706 22.057,8.62373 24.5,9.5C 28.3702,7.80483 32.3702,7.30483 36.5,8C 38.5844,8.69724 40.2511,9.8639 41.5,11.5 Z"/></g>
<g><path style="opacity:0.639" fill="#3e62fd" d="M 41.5,11.5 C 44.9008,15.4193 46.5674,20.086 46.5,25.5C 44.8212,25.2852 43.8212,25.9519 43.5,27.5C 41.7844,23.7078 40.2844,19.7078 39,15.5C 35.9746,16.7091 33.1413,16.2091 30.5,14C 26.5138,13.5012 22.5138,13.3345 18.5,13.5C 16.4727,13.6621 14.4727,13.4955 12.5,13C 13.7375,12.7679 14.7375,12.2679 15.5,11.5C 24.2519,10.9997 32.9185,10.9997 41.5,11.5 Z"/></g>
<g><path style="opacity:0.969" fill="#4261fd" d="M 15.5,11.5 C 14.7375,12.2679 13.7375,12.7679 12.5,13C 14.4727,13.4955 16.4727,13.6621 18.5,13.5C 16.1027,16.1201 13.2694,16.7868 10,15.5C 8.71563,19.7078 7.21563,23.7078 5.5,27.5C 4.79105,26.596 3.79105,26.2627 2.5,26.5C 2.45971,21.3222 3.79305,16.6555 6.5,12.5C 9.42994,11.701 12.4299,11.3677 15.5,11.5 Z"/></g>
<g><path style="opacity:0.975" fill="#7bbefd" d="M 22.5,25.5 C 19.8333,25.5 17.1667,25.5 14.5,25.5C 14.0772,22.7569 15.2439,21.4235 18,21.5C 20.9122,21.358 22.4122,22.6913 22.5,25.5 Z"/></g>
<g><path style="opacity:0.859" fill="#b1b3fd" d="M 14.5,25.5 C 17.1667,25.5 19.8333,25.5 22.5,25.5C 22.5,27.1667 22.5,28.8333 22.5,30.5C 19.8333,31.8333 17.1667,31.8333 14.5,30.5C 14.5,28.8333 14.5,27.1667 14.5,25.5 Z"/></g>
<g><path style="opacity:0.974" fill="#a6b8fd" d="M 28.5,21.5 C 32.9225,20.4249 34.9225,22.0916 34.5,26.5C 33.7581,31.6938 31.2581,32.6938 27,29.5C 26.1329,26.4791 26.6329,23.8124 28.5,21.5 Z"/></g>
<g><path style="opacity:1" fill="#a535fc" d="M 2.5,26.5 C 3.79105,26.2627 4.79105,26.596 5.5,27.5C 5.77206,29.3138 5.93873,31.3138 6,33.5C 8.15897,35.9563 8.9923,35.2896 8.5,31.5C 12.1621,31.7234 15.4954,32.7234 18.5,34.5C 15.0914,35.7958 11.7581,37.2958 8.5,39C 9.25244,39.6708 9.58577,40.5041 9.5,41.5C 3.31173,38.5704 0.978394,33.5704 2.5,26.5 Z"/></g>
<g><path style="opacity:0.823" fill="#b929fd" d="M 18.5,34.5 C 22.5,34.5 26.5,34.5 30.5,34.5C 33.9086,35.7958 37.2419,37.2958 40.5,39C 39.7476,39.6708 39.4142,40.5041 39.5,41.5C 36.8127,41.6641 34.146,41.4974 31.5,41C 29.7678,39.3469 27.6011,38.5136 25,38.5C 22.0221,38.1483 19.5221,38.9816 17.5,41C 14.854,41.4974 12.1873,41.6641 9.5,41.5C 9.58577,40.5041 9.25244,39.6708 8.5,39C 11.7581,37.2958 15.0914,35.7958 18.5,34.5 Z"/></g>
<g><path style="opacity:0.98" fill="#a634fc" d="M 46.5,25.5 C 46.8242,29.5546 46.4909,33.5546 45.5,37.5C 43.7541,39.2516 41.7541,40.5849 39.5,41.5C 39.4142,40.5041 39.7476,39.6708 40.5,39C 37.2419,37.2958 33.9086,35.7958 30.5,34.5C 33.5046,32.7234 36.8379,31.7234 40.5,31.5C 40.0301,35.9704 41.0301,36.4704 43.5,33C 42.2475,31.1722 42.2475,29.3388 43.5,27.5C 43.8212,25.9519 44.8212,25.2852 46.5,25.5 Z"/></g>
</svg>
