<?xml version="1.0" encoding="UTF-8"?>
<!DOCTYPE svg PUBLIC "-//W3C//DTD SVG 1.1//EN" "http://www.w3.org/Graphics/SVG/1.1/DTD/svg11.dtd">
<svg xmlns="http://www.w3.org/2000/svg" version="1.1" width="64px" height="64px" style="shape-rendering:geometricPrecision; text-rendering:geometricPrecision; image-rendering:optimizeQuality; fill-rule:evenodd; clip-rule:evenodd" xmlns:xlink="http://www.w3.org/1999/xlink">
<g><path style="opacity:1" fill="#ea96fc" d="M 44.5,14.5 C 46.265,17.4488 48.5983,18.1154 51.5,16.5C 53.1942,15.314 54.8608,15.4807 56.5,17C 54.6854,17.7568 53.0188,18.5902 51.5,19.5C 45.5828,21.5543 39.5828,23.221 33.5,24.5C 32.4625,23.0697 31.7959,21.403 31.5,19.5C 32.0838,16.715 31.0838,15.0483 28.5,14.5C 28.1667,13.1667 27.8333,11.8333 27.5,10.5C 28.391,11.1098 29.391,11.4431 30.5,11.5C 35.8523,13.395 39.3523,11.395 41,5.5C 41.6667,6.16667 42.3333,6.83333 43,7.5C 43.1862,10.0356 43.6862,12.369 44.5,14.5 Z"/></g>
<g><path style="opacity:1" fill="#3b7fd2" d="M 16.5,8.5 C 20.2403,11.5994 21.407,15.5994 20,20.5C 17.4181,26.0718 13.2514,28.0718 7.5,26.5C 10.7993,20.5825 13.7993,14.5825 16.5,8.5 Z"/></g>
<g><path style="opacity:1" fill="#3b7ed2" d="M 51.5,16.5 C 48.5983,18.1154 46.265,17.4488 44.5,14.5C 44.3398,12.8008 44.5065,11.1341 45,9.5C 48.0738,11.0708 50.2405,13.4042 51.5,16.5 Z"/></g>
<g><path style="opacity:1" fill="#45516b" d="M 39.5,12.5 C 42.8606,13.2032 43.1939,14.5365 40.5,16.5C 38.3576,15.5629 38.0243,14.2296 39.5,12.5 Z"/></g>
<g><path style="opacity:1" fill="#43506a" d="M 28.5,14.5 C 31.0838,15.0483 32.0838,16.715 31.5,19.5C 31.1667,19.5 30.8333,19.5 30.5,19.5C 28.8022,22.1239 26.9688,22.1239 25,19.5C 23.7619,16.0743 24.9286,14.4077 28.5,14.5 Z"/></g>
<g><path style="opacity:1" fill="#eec97b" d="M 30.5,19.5 C 29.1266,19.6567 27.7932,19.49 26.5,19C 25.3255,16.1712 26.3255,15.1712 29.5,16C 30.3366,17.0113 30.67,18.1779 30.5,19.5 Z"/></g>
<g><path style="opacity:1" fill="#c467d8" d="M 23.5,2.5 C 26.2763,2.08894 26.943,2.92228 25.5,5C 26.0769,6.90006 26.7435,8.73339 27.5,10.5C 27.8333,11.8333 28.1667,13.1667 28.5,14.5C 24.9286,14.4077 23.7619,16.0743 25,19.5C 26.9688,22.1239 28.8022,22.1239 30.5,19.5C 30.8333,19.5 31.1667,19.5 31.5,19.5C 31.7959,21.403 32.4625,23.0697 33.5,24.5C 33.2455,27.2287 32.2455,29.5621 30.5,31.5C 28.2143,31.595 26.2143,32.2616 24.5,33.5C 17.6787,33.5358 11.0121,32.5358 4.5,30.5C 5.03514,28.739 6.03514,27.4057 7.5,26.5C 13.2514,28.0718 17.4181,26.0718 20,20.5C 21.407,15.5994 20.2403,11.5994 16.5,8.5C 18.2752,5.78913 20.6085,3.78913 23.5,2.5 Z"/></g>
<g><path style="opacity:1" fill="#ebe0ce" d="M 45.5,52.5 C 44.1266,52.3433 42.7932,52.51 41.5,53C 42.3402,54.6665 41.8402,54.8331 40,53.5C 39.4392,56.2981 40.6059,58.1314 43.5,59C 41.9751,60.0086 40.3084,60.5086 38.5,60.5C 38.6653,56.8183 38.4986,53.1516 38,49.5C 36.5679,47.5612 34.7346,46.2279 32.5,45.5C 32.5,45.1667 32.5,44.8333 32.5,44.5C 38.3338,43.9923 40.0004,40.9923 37.5,35.5C 36.1502,34.0499 34.4835,33.3832 32.5,33.5C 32.1583,32.6618 31.4916,32.3284 30.5,32.5C 30.5,32.1667 30.5,31.8333 30.5,31.5C 35.3978,29.5473 40.0645,27.3806 44.5,25C 47.6384,28.1416 49.9717,31.8083 51.5,36C 50.9915,37.1685 50.1581,38.0019 49,38.5C 46.2455,37.0823 43.9122,34.749 42,31.5C 41.5,31.8333 41,32.1667 40.5,32.5C 41.3094,34.0709 41.6427,35.7376 41.5,37.5C 42.8333,37.5 44.1667,37.5 45.5,37.5C 45.5,39.1667 45.5,40.8333 45.5,42.5C 37.6805,42.727 37.5138,44.727 45,48.5C 45.49,49.7932 45.6567,51.1266 45.5,52.5 Z"/></g>
<g><path style="opacity:1" fill="#3b4c6a" d="M 23.5,24.5 C 27.1612,24.3501 28.1612,25.8501 26.5,29C 22.7071,29.4866 21.7071,27.9866 23.5,24.5 Z"/></g>
<g><path style="opacity:1" fill="#d6b879" d="M 24.5,25.5 C 26.7602,26.2376 26.9269,27.2376 25,28.5C 23.2716,27.6477 23.105,26.6477 24.5,25.5 Z"/></g>
<g><path style="opacity:0.742" fill="#334a6e" d="M 51.5,55.5 C 51.5,54.8333 51.1667,54.5 50.5,54.5C 52.3501,49.3166 52.8501,43.9833 52,38.5C 50.9029,41.2648 48.9029,42.9314 46,43.5C 45.5172,44.448 45.3505,45.448 45.5,46.5C 46.552,46.3505 47.552,46.5172 48.5,47C 47.6598,48.6665 48.1598,48.8331 50,47.5C 51.1772,51.4918 49.6772,53.1584 45.5,52.5C 45.6567,51.1266 45.49,49.7932 45,48.5C 37.5138,44.727 37.6805,42.727 45.5,42.5C 45.5,40.8333 45.5,39.1667 45.5,37.5C 44.1667,37.5 42.8333,37.5 41.5,37.5C 41.6427,35.7376 41.3094,34.0709 40.5,32.5C 41,32.1667 41.5,31.8333 42,31.5C 43.9122,34.749 46.2455,37.0823 49,38.5C 50.1581,38.0019 50.9915,37.1685 51.5,36C 49.9717,31.8083 47.6384,28.1416 44.5,25C 40.0645,27.3806 35.3978,29.5473 30.5,31.5C 32.2455,29.5621 33.2455,27.2287 33.5,24.5C 39.5828,23.221 45.5828,21.5543 51.5,19.5C 53.0188,18.5902 54.6854,17.7568 56.5,17C 54.8608,15.4807 53.1942,15.314 51.5,16.5C 50.2405,13.4042 48.0738,11.0708 45,9.5C 44.5065,11.1341 44.3398,12.8008 44.5,14.5C 43.6862,12.369 43.1862,10.0356 43,7.5C 42.3333,6.83333 41.6667,6.16667 41,5.5C 39.3523,11.395 35.8523,13.395 30.5,11.5C 29.391,11.4431 28.391,11.1098 27.5,10.5C 26.7435,8.73339 26.0769,6.90006 25.5,5C 26.943,2.92228 26.2763,2.08894 23.5,2.5C 23.5,2.16667 23.5,1.83333 23.5,1.5C 28.5071,0.119393 33.5071,0.28606 38.5,2C 43.084,4.57975 47.084,7.91308 50.5,12C 54.0178,13.8364 57.5178,15.6697 61,17.5C 61.7323,24.7844 58.899,30.2844 52.5,34C 55.3073,41.39 54.974,48.5567 51.5,55.5 Z"/></g>
<g><path style="opacity:1" fill="#3b86e0" d="M 36.5,23.5 C 38.1992,23.3398 39.8659,23.5065 41.5,24C 39.3333,25.5 37.1667,27 35,28.5C 34.3872,26.5048 34.8872,24.8381 36.5,23.5 Z"/></g>
<g><path style="opacity:1" fill="#3b84dd" d="M 56.5,22.5 C 58.8963,23.8275 58.8963,25.4942 56.5,27.5C 55.3336,25.8327 55.3336,24.166 56.5,22.5 Z"/></g>
<g><path style="opacity:1" fill="#f0afb2" d="M 51.5,19.5 C 54.2898,19.0509 56.9564,19.0509 59.5,19.5C 55.3767,20.7622 53.5433,23.4289 54,27.5C 55.5063,29.4323 54.8396,30.7657 52,31.5C 49.7233,29.126 47.5566,26.626 45.5,24C 48.8176,24.1754 50.8176,22.6754 51.5,19.5 Z"/></g>
<g><path style="opacity:1" fill="#3c8ae6" d="M 30.5,11.5 C 27.9238,9.11247 26.9238,6.11247 27.5,2.5C 31.2154,2.19607 34.7154,2.86274 38,4.5C 38.3351,9.66164 35.8351,11.995 30.5,11.5 Z"/></g>
<g><path style="opacity:1" fill="#667187" d="M 30.5,31.5 C 30.5,31.8333 30.5,32.1667 30.5,32.5C 28.6208,33.3414 26.6208,33.6747 24.5,33.5C 26.2143,32.2616 28.2143,31.595 30.5,31.5 Z"/></g>
<g><path style="opacity:1" fill="#f4e7d3" d="M 30.5,32.5 C 31.4916,32.3284 32.1583,32.6618 32.5,33.5C 28.2522,34.5882 26.7522,37.2548 28,41.5C 29.129,43.1412 30.629,44.1412 32.5,44.5C 32.5,44.8333 32.5,45.1667 32.5,45.5C 24.7454,46.2695 21.412,50.6028 22.5,58.5C 20.901,58.7678 19.5676,58.4345 18.5,57.5C 19.9076,56.0892 20.9076,54.4225 21.5,52.5C 20.9272,49.9147 19.2605,48.9147 16.5,49.5C 16.6168,47.5165 15.9501,45.8498 14.5,44.5C 17.1984,39.9822 20.5318,36.3155 24.5,33.5C 26.6208,33.6747 28.6208,33.3414 30.5,32.5 Z"/></g>
<g><path style="opacity:1" fill="#3f516e" d="M 32.5,33.5 C 34.4835,33.3832 36.1502,34.0499 37.5,35.5C 40.0004,40.9923 38.3338,43.9923 32.5,44.5C 30.629,44.1412 29.129,43.1412 28,41.5C 26.7522,37.2548 28.2522,34.5882 32.5,33.5 Z"/></g>
<g><path style="opacity:1" fill="#dcbc79" d="M 30.5,35.5 C 32.0481,35.8212 32.7148,36.8212 32.5,38.5C 29.7524,38.5983 29.0857,37.5983 30.5,35.5 Z"/></g>
<g><path style="opacity:1" fill="#c8ae78" d="M 33.5,35.5 C 38.4211,37.3536 38.4211,38.3536 33.5,38.5C 33.5,37.5 33.5,36.5 33.5,35.5 Z"/></g>
<g><path style="opacity:0.816" fill="#34486d" d="M 23.5,1.5 C 23.5,1.83333 23.5,2.16667 23.5,2.5C 20.6085,3.78913 18.2752,5.78913 16.5,8.5C 13.7993,14.5825 10.7993,20.5825 7.5,26.5C 6.03514,27.4057 5.03514,28.739 4.5,30.5C 11.0121,32.5358 17.6787,33.5358 24.5,33.5C 20.5318,36.3155 17.1984,39.9822 14.5,44.5C 15.9501,45.8498 16.6168,47.5165 16.5,49.5C 19.2605,48.9147 20.9272,49.9147 21.5,52.5C 20.9076,54.4225 19.9076,56.0892 18.5,57.5C 18.1667,57.5 17.8333,57.5 17.5,57.5C 16.5178,56.8592 15.5178,56.1925 14.5,55.5C 13.8182,56.2427 13.1515,56.9094 12.5,57.5C 12.5,56.8333 12.1667,56.5 11.5,56.5C 11.5,55.8333 11.1667,55.5 10.5,55.5C 9.16667,54.8333 7.83333,54.1667 6.5,53.5C 7.87344,53.6567 9.20677,53.49 10.5,53C 9.66337,51.9887 9.33003,50.8221 9.5,49.5C 7.83333,49.5 6.16667,49.5 4.5,49.5C 3.83333,49.5 3.5,49.1667 3.5,48.5C 7.70865,47.8106 11.042,45.644 13.5,42C 9.04768,42.0218 5.21435,40.5218 2,37.5C 1.33333,35.1667 1.33333,32.8333 2,30.5C 7.32523,23.5159 11.3252,15.8492 14,7.5C 16.8012,4.85333 19.9679,2.85333 23.5,1.5 Z"/></g>
<g><path style="opacity:1" fill="#397fd3" d="M 7.5,36.5 C 9.68072,36.2837 11.3474,37.117 12.5,39C 10.8333,39.6667 9.16667,39.6667 7.5,39C 6.40191,38.2303 6.40191,37.397 7.5,36.5 Z"/></g>
<g><path style="opacity:1" fill="#f0afb2" d="M 3.5,32.5 C 8.65424,32.705 13.6542,33.705 18.5,35.5C 16.5388,40.5407 14.2055,40.7073 11.5,36C 8.97498,35.1041 6.80832,35.6041 5,37.5C 3.73082,36.0953 3.23082,34.4286 3.5,32.5 Z"/></g>
<g><path style="opacity:1" fill="#dfbe7a" d="M 29.5,39.5 C 30.5,39.5 31.5,39.5 32.5,39.5C 31.7542,43.31 30.7542,43.31 29.5,39.5 Z"/></g>
<g><path style="opacity:1" fill="#d0b379" d="M 33.5,39.5 C 34.5,39.5 35.5,39.5 36.5,39.5C 36.5,40.5 36.5,41.5 36.5,42.5C 35.5,42.5 34.5,42.5 33.5,42.5C 33.5,41.5 33.5,40.5 33.5,39.5 Z"/></g>
<g><path style="opacity:1" fill="#e890b6" d="M 12.5,45.5 C 16.3883,47.8289 16.2216,50.1622 12,52.5C 9.91205,49.9564 10.0787,47.623 12.5,45.5 Z"/></g>
<g><path style="opacity:1" fill="#eae0ce" d="M 50.5,54.5 C 46.3204,60.3339 44.6538,59.6672 45.5,52.5C 49.6772,53.1584 51.1772,51.4918 50,47.5C 48.1598,48.8331 47.6598,48.6665 48.5,47C 47.552,46.5172 46.552,46.3505 45.5,46.5C 45.3505,45.448 45.5172,44.448 46,43.5C 48.9029,42.9314 50.9029,41.2648 52,38.5C 52.8501,43.9833 52.3501,49.3166 50.5,54.5 Z"/></g>
<g><path style="opacity:0.733" fill="#34496a" d="M 32.5,45.5 C 34.7346,46.2279 36.5679,47.5612 38,49.5C 38.4986,53.1516 38.6653,56.8183 38.5,60.5C 40.3084,60.5086 41.9751,60.0086 43.5,59C 40.6059,58.1314 39.4392,56.2981 40,53.5C 41.8402,54.8331 42.3402,54.6665 41.5,53C 42.7932,52.51 44.1266,52.3433 45.5,52.5C 44.6538,59.6672 46.3204,60.3339 50.5,54.5C 51.1667,54.5 51.5,54.8333 51.5,55.5C 51.4894,57.0174 50.8228,58.1841 49.5,59C 39.859,62.9981 30.0256,63.4981 20,60.5C 18.6349,61.4556 17.1349,62.1223 15.5,62.5C 12.9789,61.3133 10.4789,61.3133 8,62.5C 6.8926,62.4148 5.8926,62.0814 5,61.5C 4.80792,57.78 3.97459,54.28 2.5,51C 2.52804,49.9302 2.86137,49.0968 3.5,48.5C 3.5,49.1667 3.83333,49.5 4.5,49.5C 4.22911,51.3797 4.89578,52.713 6.5,53.5C 7.83333,54.1667 9.16667,54.8333 10.5,55.5C 9.16667,55.5 7.83333,55.5 6.5,55.5C 6.5,57.1667 6.5,58.8333 6.5,60.5C 9.36674,60.6308 11.0334,59.2974 11.5,56.5C 12.1667,56.5 12.5,56.8333 12.5,57.5C 13.0483,60.0838 14.715,61.0838 17.5,60.5C 17.5,59.5 17.5,58.5 17.5,57.5C 17.8333,57.5 18.1667,57.5 18.5,57.5C 19.5676,58.4345 20.901,58.7678 22.5,58.5C 21.412,50.6028 24.7454,46.2695 32.5,45.5 Z"/></g>
<g><path style="opacity:1" fill="#da91f1" d="M 17.5,57.5 C 17.5,58.5 17.5,59.5 17.5,60.5C 14.715,61.0838 13.0483,60.0838 12.5,57.5C 13.1515,56.9094 13.8182,56.2427 14.5,55.5C 15.5178,56.1925 16.5178,56.8592 17.5,57.5 Z"/></g>
<g><path style="opacity:1" fill="#f193ba" d="M 10.5,55.5 C 11.1667,55.5 11.5,55.8333 11.5,56.5C 11.0334,59.2974 9.36674,60.6308 6.5,60.5C 6.5,58.8333 6.5,57.1667 6.5,55.5C 7.83333,55.5 9.16667,55.5 10.5,55.5 Z"/></g>
<g><path style="opacity:1" fill="#bc92f3" d="M 15.5,50.5 C 20.7859,50.3868 21.4525,51.7202 17.5,54.5C 13.4668,54.251 12.8002,52.9176 15.5,50.5 Z"/></g>
<g><path style="opacity:1" fill="#df92f4" d="M 4.5,49.5 C 6.16667,49.5 7.83333,49.5 9.5,49.5C 9.33003,50.8221 9.66337,51.9887 10.5,53C 9.20677,53.49 7.87344,53.6567 6.5,53.5C 4.89578,52.713 4.22911,51.3797 4.5,49.5 Z"/></g>
<g><path style="opacity:1" fill="#764837" d="M 29.5,47.5 C 29.3146,49.1958 28.4813,50.5291 27,51.5C 26.2642,54.592 26.4309,57.592 27.5,60.5C 25.1556,60.4938 23.8223,59.3271 23.5,57C 23.2735,52.2556 25.2735,49.089 29.5,47.5 Z"/></g>
<g><path style="opacity:1" fill="#a46143" d="M 29.5,47.5 C 36.4087,47.9532 38.9087,51.6199 37,58.5C 34.1963,60.3444 31.0297,61.0111 27.5,60.5C 26.4309,57.592 26.2642,54.592 27,51.5C 28.4813,50.5291 29.3146,49.1958 29.5,47.5 Z"/></g>
<g><path style="opacity:1" fill="#424761" d="M 33.5,55.5 C 34.675,55.281 35.675,55.6143 36.5,56.5C 34.9483,57.7979 33.9483,57.4646 33.5,55.5 Z"/></g>
</svg>
