<svg xmlns="http://www.w3.org/2000/svg"  viewBox="0 0 64 64" width="64px" height="64px"><linearGradient id="AWKzNDila4ISNLgYjkvBOa" x1="32" x2="32" y1="55" y2="9" gradientUnits="userSpaceOnUse"><stop offset="0" stop-color="#c822ff"/><stop offset="1" stop-color="#1a6dff"/></linearGradient><path fill="url(#AWKzNDila4ISNLgYjkvBOa)" d="M50,9H14c-2.8,0-5,2.2-5,5v36c0,2.8,2.2,5,5,5h36c2.8,0,5-2.2,5-5V14C55,11.2,52.8,9,50,9z M53,50c0,1.7-1.3,3-3,3H14c-1.7,0-3-1.3-3-3V14c0-1.7,1.3-3,3-3h36c1.7,0,3,1.3,3,3V50z M45,19H19c-1.654,0-3,1.346-3,3v20 c0,1.654,1.346,3,3,3h26c1.654,0,3-1.346,3-3V22C48,20.346,46.654,19,45,19z M44.87,21L33.415,32.455 c-0.679,0.68-1.865,0.681-2.546,0L19.414,21H44.87z M18,41.586V22.414L27.586,32L18,41.586z M19.414,43L29,33.414l0.455,0.455 c0.717,0.718,1.672,1.113,2.687,1.113c1.016,0,1.97-0.395,2.688-1.113l0.323-0.323L44.845,43H19.414z M46,41.333l-9.433-9.201 L46,22.698V41.333z M27,41h10v-2H27V41z"/><linearGradient id="AWKzNDila4ISNLgYjkvBOb" x1="32" x2="32" y1="30.509" y2="23" gradientUnits="userSpaceOnUse"><stop offset="0" stop-color="#e6abff"/><stop offset="1" stop-color="#6dc7ff"/></linearGradient><path fill="url(#AWKzNDila4ISNLgYjkvBOb)" d="M25.691,23h12.618c0.535,0,0.802,0.646,0.424,1.024l-6.309,6.309 c-0.234,0.234-0.614,0.234-0.849,0l-6.309-6.309C24.889,23.646,25.156,23,25.691,23z"/></svg>