<svg xmlns="http://www.w3.org/2000/svg"  viewBox="0 0 64 64" width="44px" height="44px"><linearGradient id="tTOsNSj5sgZJwOoh7KQFTa" x1="32" x2="32" y1="7.766" y2="56.935" gradientUnits="userSpaceOnUse"><stop offset="0" stop-color="#1a6dff"/><stop offset="1" stop-color="#c822ff"/></linearGradient><path fill="url(#tTOsNSj5sgZJwOoh7KQFTa)" d="M51,8H13c-2.757,0-5,2.243-5,5v38c0,2.757,2.243,5,5,5h38c2.757,0,5-2.243,5-5V13	C56,10.243,53.757,8,51,8z M54,51c0,1.654-1.346,3-3,3H13c-1.654,0-3-1.346-3-3V13c0-1.654,1.346-3,3-3h38c1.654,0,3,1.346,3,3V51z"/><linearGradient id="tTOsNSj5sgZJwOoh7KQFTb" x1="33" x2="33" y1="19.34" y2="44.448" gradientUnits="userSpaceOnUse"><stop offset="0" stop-color="#8cc5fc"/><stop offset="1" stop-color="#d5a8fb"/></linearGradient><path fill="url(#tTOsNSj5sgZJwOoh7KQFTb)" d="M44,24c-3.309,0-6-2.691-6-6h-4v19c0,2.757-2.243,5-5,5s-5-2.243-5-5s2.243-5,5-5	c0.342,0,0.677,0.035,1,0.101v-4.042C29.671,28.022,29.338,28,29,28c-4.963,0-9,4.037-9,9s4.037,9,9,9s9-4.037,9-9V25.981	C39.674,27.242,41.748,28,44,28c0.676,0,1.344-0.072,2-0.207v-4.16C45.354,23.864,44.685,24,44,24z"/></svg>