<svg xmlns="http://www.w3.org/2000/svg"  viewBox="0 0 64 64" width="44px" height="44px"><linearGradient id="b3LYTKAFJ3Rh2ynOFM1Vea" x1="40" x2="40" y1="9.043" y2="22.895" gradientUnits="userSpaceOnUse"><stop offset="0" stop-color="#1a6dff"/><stop offset="1" stop-color="#c822ff"/></linearGradient><path fill="url(#b3LYTKAFJ3Rh2ynOFM1Vea)" d="M42.5,14h-1c-0.276,0-0.5,0.224-0.5,0.5V22h-2v-7.5c0-0.276-0.224-0.5-0.5-0.5h-1 c-0.276,0-0.5,0.224-0.5,0.5V22c0,1.105,0.895,2,2,2h2c1.105,0,2-0.895,2-2v-7.5C43,14.224,42.776,14,42.5,14z"/><linearGradient id="b3LYTKAFJ3Rh2ynOFM1Veb" x1="32" x2="32" y1="9.043" y2="22.895" gradientUnits="userSpaceOnUse"><stop offset="0" stop-color="#1a6dff"/><stop offset="1" stop-color="#c822ff"/></linearGradient><path fill="url(#b3LYTKAFJ3Rh2ynOFM1Veb)" d="M33,14h-2c-1.105,0-2,0.895-2,2v6c0,1.105,0.895,2,2,2h2c1.105,0,2-0.895,2-2v-6 C35,14.895,34.105,14,33,14z M33,21.5c0,0.276-0.224,0.5-0.5,0.5h-1c-0.276,0-0.5-0.224-0.5-0.5v-5c0-0.276,0.224-0.5,0.5-0.5h1 c0.276,0,0.5,0.224,0.5,0.5V21.5z"/><linearGradient id="b3LYTKAFJ3Rh2ynOFM1Vec" x1="22.5" x2="22.5" y1="9.043" y2="22.895" gradientUnits="userSpaceOnUse"><stop offset="0" stop-color="#1a6dff"/><stop offset="1" stop-color="#c822ff"/></linearGradient><path fill="url(#b3LYTKAFJ3Rh2ynOFM1Vec)" d="M26.5,9h-1C25.224,9,25,9.224,25,9.5V16h-5V9.5C20,9.224,19.776,9,19.5,9h-1 C18.224,9,18,9.224,18,9.5V16c0,1.105,0.895,2,2,2h5v4h-6.5c-0.276,0-0.5,0.224-0.5,0.5v1c0,0.276,0.224,0.5,0.5,0.5H25 c1.105,0,2-0.895,2-2V9.5C27,9.224,26.776,9,26.5,9z"/><g><linearGradient id="b3LYTKAFJ3Rh2ynOFM1Ved" x1="36.5" x2="36.5" y1="30.234" y2="54.876" gradientUnits="userSpaceOnUse"><stop offset="0" stop-color="#6dc7ff"/><stop offset="1" stop-color="#e6abff"/></linearGradient><path fill="url(#b3LYTKAFJ3Rh2ynOFM1Ved)" d="M37.5,41h-2c-0.276,0-0.5,0.224-0.5,0.5V42v2v3.5c0,0.276,0.224,0.5,0.5,0.5h2 c0.276,0,0.5-0.224,0.5-0.5v-6C38,41.224,37.776,41,37.5,41z"/><linearGradient id="b3LYTKAFJ3Rh2ynOFM1Vee" x1="45" x2="45" y1="30.234" y2="54.876" gradientUnits="userSpaceOnUse"><stop offset="0" stop-color="#6dc7ff"/><stop offset="1" stop-color="#e6abff"/></linearGradient><rect width="2" height="2" x="44" y="42" fill="url(#b3LYTKAFJ3Rh2ynOFM1Vee)"/><linearGradient id="b3LYTKAFJ3Rh2ynOFM1Vef" x1="32" x2="32" y1="30.234" y2="54.876" gradientUnits="userSpaceOnUse"><stop offset="0" stop-color="#6dc7ff"/><stop offset="1" stop-color="#e6abff"/></linearGradient><path fill="url(#b3LYTKAFJ3Rh2ynOFM1Vef)" d="M49,30H15c-3.314,0-6,2.686-6,6v14c0,3.314,2.686,6,6,6h34c3.314,0,6-2.686,6-6V36 C55,32.686,52.314,30,49,30z M22,49.5c0,0.276-0.224,0.5-0.5,0.5h-1c-0.276,0-0.5-0.224-0.5-0.5V37h-3.5 c-0.276,0-0.5-0.224-0.5-0.5v-1c0-0.276,0.224-0.5,0.5-0.5h9c0.276,0,0.5,0.224,0.5,0.5v1c0,0.276-0.224,0.5-0.5,0.5H22V49.5z M31,48c0,1.105-0.895,2-2,2h-2c-1.105,0-2-0.895-2-2v-7.5c0-0.276,0.224-0.5,0.5-0.5h1c0.276,0,0.5,0.224,0.5,0.5V48h2v-7.5 c0-0.276,0.224-0.5,0.5-0.5h1c0.276,0,0.5,0.224,0.5,0.5V48z M40,48c0,1.105-0.895,2-2,2h-3c-1.105,0-2-0.895-2-2V35.5 c0-0.276,0.224-0.5,0.5-0.5h1c0.276,0,0.5,0.224,0.5,0.5V37v2h3c1.105,0,2,0.895,2,2V48z M48,44c0,1.105-0.895,2-2,2h-2v2h2v-0.527 C46,47.212,46.212,47,46.473,47h1.053C47.788,47,48,47.212,48,47.473V48c0,1.105-0.895,2-2,2h-2c-1.105,0-2-0.895-2-2v-6 c0-1.105,0.895-2,2-2h2c1.105,0,2,0.895,2,2V44z"/></g></svg>